<?xml version="1.0" encoding="utf-8"?>
<!-- Generator: Adobe Illustrator 18.1.0, SVG Export Plug-In . SVG Version: 6.00 Build 0)  -->
<svg version="1.1" id="Слой_1" xmlns="http://www.w3.org/2000/svg" xmlns:xlink="http://www.w3.org/1999/xlink" x="0px" y="0px"
	 viewBox="333.4 69.7 240.5 228" enable-background="new 333.4 69.7 240.5 228" xml:space="preserve">
<path d="M565.7,98h-76.6c-3.7-16.2-18.2-28.3-35.5-28.3c-17.3,0-31.8,12.1-35.5,28.3h-76.6c-4.5,0-8.2,3.7-8.2,8.2s3.7,8.2,8.2,8.2
	h76.6c3.7,16.2,18.2,28.3,35.5,28.3c17.3,0,31.8-12.1,35.5-28.3h76.6c4.5,0,8.2-3.7,8.2-8.2S570.2,98,565.7,98z M453.7,126.3
	c-11.1,0-20.1-9-20.1-20.1c0-11.1,9-20.1,20.1-20.1c10.8,0,19.5,8.5,20,19.1c0,0.3-0.1,0.7-0.1,1c0,0.3,0.1,0.7,0.1,1
	C473.1,117.8,464.4,126.3,453.7,126.3z"/>
<path d="M565.7,253.1h-17.1c-3.7-16.2-18.2-28.3-35.5-28.3s-31.8,12.1-35.5,28.3H341.6c-4.5,0-8.2,3.7-8.2,8.2s3.7,8.2,8.2,8.2
	h136.1c3.7,16.2,18.2,28.3,35.5,28.3c17.3,0,31.8-12.1,35.5-28.3h17.1c4.5,0,8.2-3.7,8.2-8.2C573.9,256.7,570.2,253.1,565.7,253.1z
	 M513.2,281.4c-11.1,0-20.1-9-20.1-20.1c0-11.1,9-20.1,20.1-20.1s20.1,9,20.1,20.1C533.3,272.3,524.3,281.4,513.2,281.4z"/>
<path d="M565.7,175.5H429.6c-3.7-16.2-18.2-28.3-35.5-28.3s-31.8,12.1-35.5,28.3h-17.1c-4.5,0-8.2,3.7-8.2,8.2s3.7,8.2,8.2,8.2h17.1
	c3.7,16.2,18.2,28.3,35.5,28.3s31.8-12.1,35.5-28.3h136.1c4.5,0,8.2-3.7,8.2-8.2S570.2,175.5,565.7,175.5z M394.1,203.8
	c-11.1,0-20.1-9-20.1-20.1c0-11.1,9-20.1,20.1-20.1s20.1,9,20.1,20.1C414.2,194.8,405.2,203.8,394.1,203.8z"/>
</svg>
