<?xml version="1.0" encoding="utf-8"?>
<!-- Generator: Adobe Illustrator 18.1.0, SVG Export Plug-In . SVG Version: 6.00 Build 0)  -->
<svg version="1.1" id="Слой_1" xmlns="http://www.w3.org/2000/svg" xmlns:xlink="http://www.w3.org/1999/xlink" x="0px" y="0px"
	 viewBox="299.2 30.1 254.5 372.7" enable-background="new 299.2 30.1 254.5 372.7" xml:space="preserve">
<g>
	<path d="M426.7,40.3L426.7,40.3c-90.6,0-146.9,98-101.6,176.3L426.7,393l101.6-176.3C573.6,138.3,517.3,40.3,426.7,40.3z
		 M426.7,216.7c-37.1,0-67.4-30.2-67.4-67.4S389.5,82,426.7,82s67.4,30.2,67.4,67.4S463.8,216.7,426.7,216.7z"/>
	<g>
		<path d="M426.7,30.1c-51.8,0-98,31.8-118,79.2c-16.7,39.6-10.2,81.6,10.6,118C352,284,385,341.2,417.7,397.9
			c3.7,6.5,13.9,6.5,17.6,0c32.7-56.3,65.3-112.7,97.6-169.4c21.2-36.7,27.8-76.7,12.7-117.2C527.1,62,478.9,31.4,426.7,30.1
			c-13.1-0.4-13.1,20,0,20.4c55.1,1.2,100.8,41.6,106.9,96.7c3.7,33.1-11.4,60-27.3,86.9c-29.4,51-58.8,102-88.6,153.1
			c5.7,0,11.8,0,17.6,0c-29.4-51-58.8-102-88.6-153.1c-15.9-27.8-29.8-53.5-27.3-86.9c4.1-54.3,53.9-96.7,107.4-96.7
			C439.7,50.6,439.7,30.1,426.7,30.1z"/>
		<path d="M426.7,206.5c-73.9-2.9-73.9-111.4,0-114.3c32.2-1.2,55.9,26.9,57.1,57.1C485,181.6,456.9,205.3,426.7,206.5
			c-13.1,0.4-13.1,20.8,0,20.4c43.3-1.6,75.9-34.3,77.6-77.6s-36.7-75.9-77.6-77.6c-43.3-1.6-75.9,36.7-77.6,77.6
			c-1.6,43.3,36.7,75.9,77.6,77.6C439.7,227.3,439.7,206.9,426.7,206.5z"/>
	</g>
</g>
</svg>
