<?xml version="1.0" encoding="utf-8"?>
<!-- Generator: Adobe Illustrator 18.1.0, SVG Export Plug-In . SVG Version: 6.00 Build 0)  -->
<svg version="1.1" id="Слой_1" xmlns="http://www.w3.org/2000/svg" xmlns:xlink="http://www.w3.org/1999/xlink" x="0px" y="0px"
	 viewBox="251.4 20.4 367.4 367.4" enable-background="new 251.4 20.4 367.4 367.4" xml:space="preserve">
<path d="M555.8,20.4H314.4c-34.8,0-63,28.2-63,63v241.4c0,34.8,28.2,63,63,63h241.4c34.8,0,63-28.2,63-63V83.4
	C618.8,48.6,590.6,20.4,555.8,20.4z M377.8,172.2L377.8,172.2c0,0,0.1-0.1,0.1-0.1c0.7-1.3,1.5-2.6,2.3-3.8c0.5-0.7,1-1.4,1.5-2.2
	c0.6-0.8,1.1-1.6,1.7-2.3c0.5-0.7,1-1.3,1.6-2c1-1.2,2.1-2.4,3.2-3.5c0.5-0.6,1.1-1.1,1.7-1.6c0.8-0.8,1.6-1.5,2.4-2.2
	c0.6-0.5,1.1-1,1.7-1.4c1.3-1,2.6-2,4-3c0.5-0.3,1-0.7,1.5-1c1.1-0.7,2.2-1.4,3.3-2c0.5-0.3,1.1-0.6,1.6-0.9
	c1.6-0.8,3.2-1.6,4.8-2.3c0.4-0.2,0.8-0.3,1.2-0.5c1.4-0.6,2.8-1.1,4.3-1.6c0.5-0.2,1-0.3,1.6-0.5c1.8-0.5,3.6-1,5.5-1.4
	c0.2,0,0.4-0.1,0.6-0.1c1.7-0.3,3.4-0.6,5.2-0.8c0.5-0.1,1-0.1,1.6-0.2c2-0.2,4-0.3,6-0.3c2,0,4,0.1,6,0.3c0.5,0,1,0.1,1.5,0.2
	c1.8,0.2,3.5,0.5,5.2,0.8c0.2,0,0.4,0.1,0.6,0.1c1.9,0.4,3.7,0.9,5.5,1.4c0.5,0.2,1,0.3,1.5,0.5c1.5,0.5,2.9,1,4.3,1.6
	c0.4,0.2,0.8,0.3,1.1,0.4c1.6,0.7,3.2,1.5,4.8,2.3c0.5,0.3,1.1,0.6,1.6,0.9c1.1,0.6,2.3,1.3,3.4,2c0.5,0.3,1,0.6,1.5,1
	c1.4,1,2.7,2,4,3c0.6,0.5,1.1,0.9,1.7,1.4c0.8,0.7,1.7,1.5,2.5,2.3c0.5,0.5,1.1,1,1.6,1.6c1.1,1.1,2.2,2.3,3.2,3.5
	c0.5,0.6,1,1.3,1.5,1.9c0.6,0.8,1.2,1.6,1.8,2.4c0.5,0.7,1,1.4,1.5,2.1c6.7,10.3,10.7,22.6,10.7,35.9c0,36.2-29.4,65.6-65.6,65.6
	c-36.2,0-65.6-29.4-65.6-65.6C369.5,192.5,372.5,181.7,377.8,172.2z M579.4,305.2c0,25.5-20.7,46.2-46.2,46.2H337
	c-25.5,0-46.2-20.7-46.2-46.2v-133h44.3c-3.2,10-5,20.7-5,31.9c0,58,47,105,105,105s105-47,105-105c0-11.1-1.8-21.8-5-31.9h44.3
	V305.2z M579.4,93.9c0,2.9-2.3,5.2-5.2,5.2h-28.9c-2.9,0-5.2-2.3-5.2-5.2V65c0-2.9,2.3-5.2,5.2-5.2h28.9c2.9,0,5.2,2.4,5.2,5.2V93.9
	z"/>
</svg>
