<?xml version="1.0" encoding="utf-8"?>
<!-- Generator: Adobe Illustrator 18.1.0, SVG Export Plug-In . SVG Version: 6.00 Build 0)  -->
<svg version="1.1" id="Слой_1" xmlns="http://www.w3.org/2000/svg" xmlns:xlink="http://www.w3.org/1999/xlink" x="0px" y="0px"
	 viewBox="308.8 2.3 241.8 400.1" enable-background="new 308.8 2.3 241.8 400.1" xml:space="preserve">
<path d="M548.8,370.5c-2.9,8.4-8.4,14.5-15.9,17.2L506.7,398c-31.7,12.7-70.3-2.7-91.7-36.4c-42-66.1-88.7-181.6-104.3-258.3
	c-7.8-38.9,9.4-76.3,41.1-89l26.2-10.2c6.7-2.7,14.3-2.4,21.2,0.6c0.9,0.4,1.6,0.7,2.2,0.9c9.9,5.4,17.2,15.1,20,26.7l11.4,49.3
	c1.8,7.1-1,13.6-6.5,16.1l-29.9,12c-13.4,5.4-20.8,20-18.5,36.1c6.4,42,31.6,105,56.5,140.1c9.2,13.2,25,18.5,38.3,13.4l29.9-12
	c5.7-2,12.2,0.8,15.9,6.8l25.9,43.3C550.8,347.7,552.1,360.1,548.8,370.5z"/>
</svg>
