<?xml version="1.0" encoding="utf-8"?>
<!-- Generator: Adobe Illustrator 18.1.0, SVG Export Plug-In . SVG Version: 6.00 Build 0)  -->
<svg version="1.1" id="Слой_1" xmlns="http://www.w3.org/2000/svg" xmlns:xlink="http://www.w3.org/1999/xlink" x="0px" y="0px"
	 viewBox="280.4 41.8 309.4 325.1" enable-background="new 280.4 41.8 309.4 325.1" xml:space="preserve">
<path d="M295.5,367h52.7h173.9h52.7c8.6,0,15.1-6.9,15.1-15.1v-18.4c0-15.9-7.3-31-20-40.8c-36.7-29-73.9-47.8-81.6-51.4
	c-0.8-0.4-1.6-1.2-1.6-2.4c0-4.1,0-15.1,0-26.1c4.1-8.2,6.1-16.7,7.8-24.5c3.7,2.4,9.4,1.2,15.9-21.6c5.3-18.4,2-24.9-2.4-26.1
	C522.5,69.8,489,67.4,489,67.4s-4.9-9.8-18.4-17.1c-9-5.3-21.2-9.4-38-8.2c-5.3,0.4-10.2,1.2-15.1,2.9l0,0c-6.1,2-11.4,4.9-16.7,8.6
	c-6.1,4.1-11.8,8.6-17.1,14.3c-8.2,8.2-15.5,19.2-18.4,32.2c-2.9,11.4-2.9,23.7,1.6,35.9c-6.1-0.4-13.1,2.9-6.5,26.5
	c4.9,17.6,9.4,22,13.1,22.5c1.6,9.8,4.5,20.8,10.6,31v22.9c0,1.2-0.4,2-1.6,2.4c-8.2,4.1-45.3,22.9-82,51.4
	c-12.7,9.8-20,24.9-20,40.8v18.4C280.4,360,286.9,367,295.5,367z"/>
<text transform="matrix(1 0 0 1 231.0243 469.4219)" display="none" enable-background="new    " font-family="'HelveticaNeueCyr-Bold'" font-size="20.4096">Created by Gregor Cresnar</text>
<text transform="matrix(1 0 0 1 231.0243 489.8326)" display="none" enable-background="new    " font-family="'HelveticaNeueCyr-Bold'" font-size="20.4096">from the Noun Project</text>
</svg>
