<?xml version="1.0" encoding="utf-8"?>
<!-- Generator: Adobe Illustrator 18.1.0, SVG Export Plug-In . SVG Version: 6.00 Build 0)  -->
<svg version="1.1" id="Layer_1" xmlns="http://www.w3.org/2000/svg" xmlns:xlink="http://www.w3.org/1999/xlink" x="0px" y="0px"
	 viewBox="0 0 63.8 35.8" enable-background="new 0 0 63.8 35.8" xml:space="preserve">
<g id="_x30_3_x5F_eye_x5F_looking">
	<g>
		<g>
			<path fill="none" stroke="#363F40" stroke-width="1.8" stroke-linejoin="round" stroke-miterlimit="10" d="M62.9,17.9
				c0,0-15,17-31,17s-31-17-31-17s15-17,31-17S62.9,17.9,62.9,17.9z"/>
			<g>
				<path fill="none" stroke="#363F40" stroke-width="1.8" stroke-linejoin="round" stroke-miterlimit="10" d="M27.9,8.9
					c2.8,0,5,2.2,5,5s-2.2,5-5,5s-5-2.2-5-5c0,0-1,2.5-1,4c0,5.5,4.5,10,10,10s10-4.5,10-10c0-5.5-4.5-10-10-10
					C30.4,7.9,27.9,8.9,27.9,8.9z"/>
			</g>
			
				<circle fill="none" stroke="#363F40" stroke-width="1.8" stroke-linejoin="round" stroke-miterlimit="10" cx="31.9" cy="17.9" r="17"/>
		</g>
	</g>
</g>
<g id="Layer_1_1_">
</g>
</svg>
