<?xml version="1.0" encoding="utf-8"?>
<!-- Generator: Adobe Illustrator 18.1.0, SVG Export Plug-In . SVG Version: 6.00 Build 0)  -->
<svg version="1.1" id="Слой_1" xmlns="http://www.w3.org/2000/svg" xmlns:xlink="http://www.w3.org/1999/xlink" x="0px" y="0px"
	 viewBox="292.6 28.3 283.7 354.6" enable-background="new 292.6 28.3 283.7 354.6" xml:space="preserve">
<g>
	<path d="M429.7,260.3c2.3,0,4.1-1.8,4.1-4.1v-12.5c0-2.3-1.8-4.1-4.1-4.1c-2.3,0-4.1,1.8-4.1,4.1v12.5
		C425.6,258.5,427.4,260.3,429.7,260.3z"/>
	<path d="M429.7,235.2c2.3,0,4.1-1.8,4.1-4.1v-12.5c0-2.3-1.8-4.1-4.1-4.1c-2.3,0-4.1,1.8-4.1,4.1v12.5
		C425.6,233.4,427.4,235.2,429.7,235.2z"/>
	<path d="M429.7,160c2.3,0,4.1-1.8,4.1-4.1v-12.5c0-2.3-1.8-4.1-4.1-4.1c-2.3,0-4.1,1.8-4.1,4.1v12.5
		C425.6,158.2,427.4,160,429.7,160z"/>
	<path d="M429.7,185.1c2.3,0,4.1-1.8,4.1-4.1v-12.5c0-2.3-1.8-4.1-4.1-4.1c-2.3,0-4.1,1.8-4.1,4.1V181
		C425.6,183.3,427.4,185.1,429.7,185.1z"/>
	<path d="M429.7,210.2c2.3,0,4.1-1.8,4.1-4.1v-12.5c0-2.3-1.8-4.1-4.1-4.1c-2.3,0-4.1,1.8-4.1,4.1v12.5
		C425.6,208.3,427.4,210.2,429.7,210.2z"/>
	<path d="M429.7,335.5c2.3,0,4.1-1.8,4.1-4.1v-12.5c0-2.3-1.8-4.1-4.1-4.1c-2.3,0-4.1,1.8-4.1,4.1v12.5
		C425.6,333.7,427.4,335.5,429.7,335.5z"/>
	<path d="M433.7,344c0-2.3-1.8-4.1-4.1-4.1c-2.3,0-4.1,1.8-4.1,4.1v12.5c0,2.3,1.8,4.1,4.1,4.1c2.3,0,4.1-1.8,4.1-4.1V344z"/>
	<path d="M429.7,285.4c2.3,0,4.1-1.8,4.1-4.1v-12.5c0-2.3-1.8-4.1-4.1-4.1c-2.3,0-4.1,1.8-4.1,4.1v12.5
		C425.6,283.6,427.4,285.4,429.7,285.4z"/>
	<path d="M429.7,310.5c2.3,0,4.1-1.8,4.1-4.1v-12.5c0-2.3-1.8-4.1-4.1-4.1c-2.3,0-4.1,1.8-4.1,4.1v12.5
		C425.6,308.6,427.4,310.5,429.7,310.5z"/>
	<path d="M386.9,78.7c0-13.9-11.3-25.3-25.3-25.3c-13.9,0-25.3,11.3-25.3,25.3s11.3,25.3,25.3,25.3C375.6,104,386.9,92.6,386.9,78.7
		z M348.6,78.7c0-7.2,5.9-13,13-13s13,5.9,13,13s-5.9,13-13,13C354.4,91.7,348.6,85.9,348.6,78.7z"/>
	<path d="M576.3,207.4c0-31-25.2-56.2-56.2-56.2c-1.8,0-3.5,0.1-5.2,0.3c-24.5-22.2-56.2-34.5-89.3-34.5c-6.4,0-12.8,0.5-19.1,1.4
		c6.6-12.4,11.4-24.6,11.4-33.9c0-31-25.2-56.2-56.2-56.2s-56.2,25.2-56.2,56.2c0,17.7,17.1,45.6,31.7,66.2
		c-28.7,25-44.5,60-44.5,99.3c0,18.8,3.9,36.6,11,52.9c0.1,0.3,0.2,0.5,0.3,0.8c17.8,40.3,55.1,70.1,99.8,77.6
		c0.2,0,0.3,0.1,0.5,0.1c7,1.1,14.1,1.7,21.4,1.7c69.1,0,128.7-57.9,132.9-129.1c0-0.4,0-0.8,0-1.2
		C568.2,236.5,576.3,219.5,576.3,207.4z M564.1,207.4c0,18.8-28.4,58.7-44,78.5c-15.6-19.8-44-59.8-44-78.5c0-24.2,19.7-44,44-44
		C544.3,163.4,564.1,183.1,564.1,207.4z M429.7,365c-2.3,0-4.1,1.8-4.1,4.1v1.6c-4.8,0-9.6-0.3-14.3-0.9v-87.5c0-0.1,0-0.1,0-0.2
		c0-0.2,0-0.4-0.1-0.7c0-0.2,0-0.4-0.1-0.5c0-0.2-0.1-0.4-0.2-0.6c-0.1-0.2-0.1-0.4-0.2-0.5c-0.1-0.2-0.2-0.3-0.3-0.5
		c-0.1-0.2-0.2-0.4-0.3-0.5c0-0.1-0.1-0.1-0.1-0.2c-0.1-0.1-0.2-0.2-0.3-0.3c-0.1-0.2-0.3-0.3-0.4-0.5c-0.1-0.1-0.3-0.3-0.5-0.4
		c-0.2-0.1-0.3-0.2-0.5-0.3c-0.2-0.1-0.3-0.2-0.5-0.3c-0.2-0.1-0.4-0.2-0.5-0.2c-0.2-0.1-0.4-0.1-0.6-0.2c-0.2-0.1-0.4-0.1-0.6-0.1
		c-0.2,0-0.4,0-0.6-0.1c-0.1,0-0.2,0-0.4,0c-0.1,0-0.1,0-0.2,0c-0.2,0-0.4,0-0.6,0.1c-0.2,0-0.4,0-0.6,0.1c-0.2,0-0.4,0.1-0.6,0.2
		c-0.2,0.1-0.4,0.1-0.6,0.2c-0.2,0.1-0.3,0.2-0.5,0.3c-0.2,0.1-0.4,0.2-0.6,0.3c-0.1,0-0.1,0.1-0.2,0.1l-66.8,51.7
		c-7-8-13-17-17.7-26.7l92-71.2c0.1-0.1,0.2-0.2,0.3-0.3c0.2-0.1,0.3-0.3,0.4-0.4c0.1-0.2,0.3-0.3,0.4-0.5c0.1-0.2,0.2-0.3,0.3-0.5
		c0.1-0.2,0.2-0.4,0.3-0.5c0.1-0.2,0.2-0.3,0.2-0.5c0.1-0.2,0.1-0.4,0.2-0.6c0-0.2,0.1-0.4,0.1-0.6c0-0.2,0.1-0.4,0.1-0.7
		c0-0.1,0-0.2,0-0.4V130c4.7-0.6,9.5-0.8,14.3-0.8v1.7c0,2.3,1.8,4.1,4.1,4.1c2.3,0,4.1-1.8,4.1-4.1v-1.4c5.1,0.3,10.1,1,15,1.9
		v236.8c-4.9,1-9.9,1.7-15,2.1V369C433.7,366.8,431.9,365,429.7,365z M399,367.7c-21.3-4.8-40.5-15.2-55.9-29.7l55.9-43.2V367.7z
		 M361.6,40.5c24.2,0,44,19.7,44,44c0,18.8-28.4,58.7-44,78.5c-15.6-19.8-44-59.8-44-78.5C317.6,60.3,337.4,40.5,361.6,40.5z
		 M344.3,160.6c6.2,8.3,11.1,14.3,12.6,16.1c1.2,1.4,2.9,2.2,4.7,2.2c1.8,0,3.6-0.8,4.7-2.2c3-3.6,18.7-22.9,32.1-44.4
		c0.2,0,0.4-0.1,0.6-0.1v91.3L312,290.8c-4.6-12.8-7.1-26.5-7.1-40.9C304.8,214.7,318.8,183.2,344.3,160.6z M461,365V134.5
		c14.1,4.3,27.3,11.2,39.1,20.4c-21.1,8.1-36.2,28.5-36.2,52.5c0,29,46.2,85.8,51.5,92.2c1.2,1.4,2.9,2.2,4.7,2.2
		c1.8,0,3.6-0.8,4.7-2.2c1.9-2.3,9.3-11.3,17.8-23.3C532.1,318.1,500.4,352,461,365z"/>
	<path d="M520.1,226.8c13.9,0,25.3-11.3,25.3-25.3c0-13.9-11.3-25.3-25.3-25.3c-13.9,0-25.3,11.3-25.3,25.3
		C494.8,215.5,506.2,226.8,520.1,226.8z M520.1,188.5c7.2,0,13,5.9,13,13c0,7.2-5.9,13-13,13c-7.2,0-13-5.9-13-13
		C507.1,194.3,512.9,188.5,520.1,188.5z"/>
</g>
</svg>
