<?xml version="1.0" encoding="utf-8"?>
<!-- Generator: Adobe Illustrator 18.1.0, SVG Export Plug-In . SVG Version: 6.00 Build 0)  -->
<svg version="1.1" id="Слой_1" xmlns="http://www.w3.org/2000/svg" xmlns:xlink="http://www.w3.org/1999/xlink" x="0px" y="0px"
	 viewBox="0 0 289.3 35.5" enable-background="new 0 0 289.3 35.5" xml:space="preserve">
<path d="M94.1,0.9L91,17.2H71.4l3.2-16.3h-3.8l-6.6,34H68l3.3-17h19.5l-3.3,17h3.8l6.6-34H94.1z"/>
<path d="M100.7,34.9l6.6-34h-3.8l-6.6,34H100.7z"/>
<path d="M112.6,31.6c2.9,2.6,6.5,3.9,10.9,3.9c2.1,0,4.3-0.4,6.4-1.1c2.1-0.7,4.1-1.7,5.8-3c1.8-1.3,3.3-2.8,4.7-4.5
	c1.4-1.7,2.4-3.6,3.2-5.8c0.8-2.1,1.2-4.3,1.2-6.6c0-4.2-1.4-7.6-4.3-10.3c-2.9-2.7-6.5-4-10.9-4c-2.7,0-5.3,0.6-7.9,1.7
	c-2.6,1.1-4.9,2.7-6.8,4.6c-2,1.9-3.5,4.2-4.7,6.8c-1.2,2.6-1.8,5.3-1.8,8.1C108.2,25.5,109.7,28.9,112.6,31.6z M113.7,14.5
	c0.9-2.6,2.1-4.9,3.6-6.9c1.5-2,3.3-3.6,5.5-4.8c2.1-1.2,4.4-1.8,6.7-1.8c3.5,0,6.3,1.1,8.3,3.3s3,5.2,3,9.1c0,2.7-0.4,5.4-1.3,8.1
	c-0.9,2.6-2.1,4.9-3.6,6.9c-1.5,2-3.3,3.6-5.5,4.8c-2.1,1.2-4.4,1.8-6.7,1.8c-3.6,0-6.3-1.1-8.3-3.2c-2-2.1-2.9-5.2-2.9-9.1
	C112.3,19.8,112.8,17.1,113.7,14.5z"/>
<path d="M171.5,29.2L152.1,0.3l-6.7,34.5h0.7l5.5-28.4l19.5,28.9l6.7-34.5H177L171.5,29.2z"/>
<path d="M176.5,34.9h8.9c2.6,0,5.1-0.4,7.3-1.3c2.2-0.9,4.1-2.2,5.4-3.9c1.4-1.7,2.1-3.7,2.1-5.9c0-2.4-0.8-4.3-2.4-5.7
	c-1.6-1.4-3.7-2.3-6.3-2.7c2.3-0.6,4.2-1.6,5.6-3.1c1.4-1.4,2.1-3.1,2.1-5.1c0-2.1-0.8-3.7-2.5-4.7c-1.7-1.1-4-1.6-7-1.6h-6.6
	L176.5,34.9z M196.1,23.3c0,2.1-0.4,3.9-1.3,5.5c-0.9,1.6-2.1,2.9-3.8,3.9c-1.7,1-3.7,1.5-6,1.5h-4.6l3.5-18.2h4.6
	C193.6,15.9,196.1,18.4,196.1,23.3L196.1,23.3z M194.4,3c0.8,0.9,1.3,2.3,1.3,4c0,2.4-0.7,4.4-2.2,6c-1.4,1.5-3.5,2.3-6.2,2.3h-3.2
	l2.6-13.6h3.2C192.1,1.6,193.6,2.1,194.4,3z"/>
<path d="M226.3,34.9L219.4,0l-20.5,34.9h0.8l6.2-10.6h14.4l2.1,10.6H226.3z M220.2,23.6h-13.8L216.7,6L220.2,23.6z"/>
<path d="M256.2,29.2L236.8,0.3l-6.7,34.5h0.7l5.5-28.4l19.4,28.9l6.7-34.5h-0.8L256.2,29.2z"/>
<path d="M267.9,0.9l-6.6,34h3.8l2.2-11.2l7-7.2l8.4,18.4h4.1L277,13.6l12.3-12.7h-1l-20.9,21.5l4.2-21.5H267.9z"/>
<path d="M61.8,1.5c-0.5-0.2-1.3-0.5-2.4-0.7c-1.1-0.2-2.2-0.4-3.3-0.4c-3,0-5.6,0.8-7.8,2.3c-2.1,1.6-3.2,3.6-3.2,6.2
	c0,0.5,0.1,1.1,0.2,1.6c0.1,0.5,0.3,1,0.4,1.4c0.2,0.4,0.4,0.9,0.8,1.4c0.4,0.5,0.7,0.9,1,1.3c0.3,0.3,0.8,0.8,1.4,1.3
	c0.6,0.6,1.2,1,1.6,1.3c0.4,0.3,1,0.9,1.8,1.6c1.3,1,2.2,1.9,2.9,2.6c0.7,0.7,1.2,1.5,1.7,2.4c0.4,0.9,0.6,1.9,0.6,3
	c0,2.3-0.6,4.2-2.3,5.6c-1.8,1.5-6.3,2-6.3,2l0.1,0.9c0,0,2.9-0.3,4.4-0.7c1.6-0.5,2.7-0.9,3.9-1.7c1.2-0.8,2.1-1.8,2.9-3.1
	c0.7-1.3,1.1-2.7,1.1-4.3c0-0.8-0.1-1.5-0.3-2.3c-0.2-0.7-0.5-1.4-0.9-2.1c-0.4-0.7-0.8-1.2-1.2-1.8c-0.4-0.5-0.9-1.1-1.7-1.7
	c-0.7-0.6-1.3-1.1-1.8-1.5c-0.5-0.4-1.1-0.9-2-1.6c-1.3-1.1-2.4-2-3-2.5c-0.7-0.6-1.2-1.2-1.6-2c-0.4-0.8-0.6-1.7-0.6-2.7
	c0-1.9,0.7-3.4,2.1-4.6c1.4-1.1,3.2-1.7,5.4-1.7c0.8,0,1.5,0.1,2.2,0.2c0.7,0.2,1.3,0.3,1.8,0.5c0.5,0.2,0.9,0.4,1.3,0.7
	C61.6,2.8,61.9,3,62,3.1c0.1,0.1,0.2,0.2,0.3,0.3l0.3-1.5L61.8,1.5z"/>
<path d="M25.3,0.9H6.6L0,34.9h3.8l3.3-17h12.4l0.1-0.7H7.3l3-15.6h14.8L25.3,0.9z"/>
<path d="M43.3,34.9L36.4,0L15.9,34.9h0.8l6.2-10.6h14.4l2.1,10.6H43.3z M37.2,23.6H23.4L33.7,6L37.2,23.6z"/>
</svg>
