<?xml version="1.0" encoding="utf-8"?>
<!-- Generator: Adobe Illustrator 18.1.0, SVG Export Plug-In . SVG Version: 6.00 Build 0)  -->
<svg version="1.1" id="Слой_1" xmlns="http://www.w3.org/2000/svg" xmlns:xlink="http://www.w3.org/1999/xlink" x="0px" y="0px"
	 viewBox="4.3 4.4 510.3 510" enable-background="new 4.3 4.4 510.3 510" xml:space="preserve">
<path fill="#0039DE" d="M514.6,467.1L388.9,341.3c60.3-83.1,53-199.9-21.9-274.8C325.5,25.1,271.1,4.4,216.8,4.4S108,25.1,66.6,66.6
	c-83,83-83,217.5,0,300.3C108,408.3,162.4,429,216.8,429c43.8,0,87.5-13.4,124.6-40.4l125.8,125.8L514.6,467.1z M99.8,333.8
	c-64.4-64.4-64.4-169.4,0-234c31.3-31.3,72.8-48.5,116.9-48.5s85.8,17.2,116.9,48.5c64.4,64.4,64.4,169.4,0,234
	c-31.3,31.3-72.8,48.5-116.9,48.5S131.1,365,99.8,333.8z"/>
</svg>
