<?xml version="1.0" encoding="utf-8"?>
<!-- Generator: Adobe Illustrator 18.1.0, SVG Export Plug-In . SVG Version: 6.00 Build 0)  -->
<svg version="1.1" id="Слой_1" xmlns="http://www.w3.org/2000/svg" xmlns:xlink="http://www.w3.org/1999/xlink" x="0px" y="0px"
	 viewBox="232.6 9.8 404.9 388.6" enable-background="new 232.6 9.8 404.9 388.6" xml:space="preserve">
<g>
	<g>
		<g>
			<path d="M435.1,320.1c-60.7,0-110-50.1-110-111.7c0-59.6,100.6-186.8,104.9-192.2l5.1-6.4l5.1,6.4
				c4.3,5.4,104.9,132.7,104.9,192.3C545.1,270,495.8,320.1,435.1,320.1z M435.1,30.9c-20.6,26.9-97,129.6-97,177.5
				c0,54.4,43.5,98.6,97,98.6s97-44.2,97-98.6C532.1,160.6,455.8,57.9,435.1,30.9z"/>
		</g>
	</g>
	<g>
		<g>
			<path d="M558.9,346.2c-31.3,0-59.6-18.7-72.1-47.8l-2.2-4.9l4.4-3c26.9-18.5,43-49.1,43-82c0-8.5-2.5-19.4-7.5-32.4l-1.2-3.2
				l1.9-2.8c15-22,28.3-38.7,28.5-38.9l5.1-6.5l5.1,6.4c3,3.7,73.6,93,73.6,135.2C637.6,310.4,602.3,346.2,558.9,346.2z
				 M501.1,297.9c11.3,21.6,33.6,35.2,57.9,35.2c36.2,0,65.6-30,65.6-66.7c0-28.9-43.5-91.5-65.6-120.5
				c-4.8,6.3-12.4,16.6-20.9,28.8c4.7,13.1,7.1,24.4,7.1,33.8C545.2,243.7,528.8,276.7,501.1,297.9z"/>
		</g>
	</g>
	<g>
		<g>
			<rect x="428.7" y="209.4" width="13.1" height="189"/>
		</g>
	</g>
	<g>
		<g>
			<rect x="233.1" y="385.3" width="404.1" height="13.1"/>
		</g>
	</g>
	<g>
		<g>
			<rect x="445" y="215.6" transform="matrix(-0.7071 -0.7071 0.7071 -0.7071 601.9543 726.5732)" width="13" height="46.1"/>
		</g>
	</g>
	<g>
		<g>
			<rect x="387.9" y="268" transform="matrix(-0.7071 -0.7071 0.7071 -0.7071 515.4193 762.4185)" width="55.3" height="13"/>
		</g>
	</g>
	<g>
		<g>
			<rect x="552.5" y="339.7" width="13.1" height="52.1"/>
		</g>
	</g>
	<g>
		<g>
			<path d="M311.3,346.2c-43.4,0-78.7-35.8-78.7-79.8c0-42.3,70.6-131.4,73.6-135.2l5.1-6.4l5.1,6.4c0.2,0.2,13.5,17,28.5,39
				l1.9,2.8l-1.2,3.2c-4.9,12.9-7.5,23.8-7.5,32.3c0,32.8,16,63.5,42.9,82l4.4,3l-2.2,4.9C370.8,327.4,342.6,346.2,311.3,346.2z
				 M311.3,145.9c-22.2,28.9-65.6,91.6-65.6,120.5c0,36.8,29.4,66.7,65.6,66.7c24.3,0,46.5-13.7,57.9-35.2
				c-27.7-21.1-44.1-54.2-44.1-89.5c0-9.4,2.3-20.5,7.1-33.7C323.7,162.6,316.1,152.2,311.3,145.9z"/>
		</g>
	</g>
	<g>
		<g>
			<rect x="304.8" y="339.7" width="13.1" height="52.1"/>
		</g>
	</g>
</g>
</svg>
