<?xml version="1.0" encoding="utf-8"?>
<!-- Generator: Adobe Illustrator 18.1.0, SVG Export Plug-In . SVG Version: 6.00 Build 0)  -->
<svg version="1.1" id="Layer_21" xmlns="http://www.w3.org/2000/svg" xmlns:xlink="http://www.w3.org/1999/xlink" x="0px" y="0px"
	 viewBox="-420.9 250.7 20.3 11.5" enable-background="new -420.9 250.7 20.3 11.5" xml:space="preserve">
<title></title>
<path d="M-401.5,251.2h-3.3c-0.3,0-0.5,0.2-0.7,0.4c0,0-1.3,2.4-1.7,3.2c-1.1,2.2-1.9,1.5-1.9,0.5v-3.5c0-0.6-0.5-1.1-1.1-1.1h-2.5
	c-0.7-0.1-1.3,0.3-1.8,0.8c0,0,1.3-0.2,1.3,1.5c0,0.4,0,1.6,0,2.6c0,0.4-0.3,0.7-0.7,0.7c-0.2,0-0.4-0.1-0.6-0.2
	c-1-1.4-1.9-2.9-2.5-4.5c-0.1-0.2-0.4-0.4-0.6-0.4c-0.7,0-2.1,0-3,0c-0.3,0-0.5,0.2-0.5,0.5c0,0.1,0,0.1,0,0.2
	c0.9,2.5,4.8,10.3,9.3,10.3h1.9c0.4,0,0.7-0.3,0.7-0.7v-1.1c0-0.4,0.3-0.7,0.7-0.7c0.2,0,0.4,0.1,0.5,0.2l2.2,2.1
	c0.2,0.2,0.5,0.3,0.7,0.3h3c1.4,0,1.4-1,0.6-1.8c-0.5-0.5-2.5-2.6-2.5-2.6c-0.3-0.4-0.4-0.9-0.1-1.3c0.6-0.8,1.7-2.2,2.1-2.8
	C-401,252.9-400,251.2-401.5,251.2z"/>
</svg>
