<?xml version="1.0" encoding="utf-8"?>
<!-- Generator: Adobe Illustrator 18.1.0, SVG Export Plug-In . SVG Version: 6.00 Build 0)  -->
<svg version="1.1" id="Слой_1" xmlns="http://www.w3.org/2000/svg" xmlns:xlink="http://www.w3.org/1999/xlink" x="0px" y="0px"
	 viewBox="283 20.4 304.3 367.5" enable-background="new 283 20.4 304.3 367.5" xml:space="preserve">
<g>
	<g>
		<path d="M435.1,387.9l-5.4-5.1c-3.5-3.3-86.9-82.1-113.3-115.1c-21.5-26.9-33.4-60.6-33.4-95.1c0-83.9,68.3-152.1,152.1-152.1
			s152.1,68.2,152.1,152.1c0,34.5-11.9,68.3-33.4,95.1c-26.5,33-109.8,111.8-113.3,115.1L435.1,387.9z M435.1,36.2
			c-75.2,0-136.4,61.2-136.4,136.4c0,31.4,10.4,60.9,30,85.3c22,27.4,87.2,90,106.4,108.4c19.3-18.3,84.5-80.9,106.5-108.4
			c19.6-24.4,29.9-53.9,29.9-85.3C571.5,97.3,510.3,36.2,435.1,36.2z"/>
	</g>
	<g>
		<path d="M435.1,227.7c-30.4,0-55.2-24.8-55.2-55.2s24.7-55.2,55.2-55.2c30.4,0,55.2,24.7,55.2,55.2S465.5,227.7,435.1,227.7z
			 M435.1,133.1c-21.7,0-39.4,17.7-39.4,39.4s17.7,39.4,39.4,39.4c21.7,0,39.4-17.7,39.4-39.4S456.9,133.1,435.1,133.1z"/>
	</g>
</g>
</svg>
