<?xml version="1.0" encoding="utf-8"?>
<!-- Generator: Adobe Illustrator 18.1.0, SVG Export Plug-In . SVG Version: 6.00 Build 0)  -->
<svg version="1.1" id="Слой_1" xmlns="http://www.w3.org/2000/svg" xmlns:xlink="http://www.w3.org/1999/xlink" x="0px" y="0px"
	 viewBox="249.6 44.5 371 319.1" enable-background="new 249.6 44.5 371 319.1" xml:space="preserve">
<path d="M520.9,44.5c-35.5,0-67.8,19-85.8,50.2c-18-31.1-50.2-50.2-85.7-50.2c-55,0-99.8,46.1-99.8,102.8
	c0,77.7,98,151.2,156.6,195.1c10.3,7.7,19.4,14.5,26.6,20.3c0.7,0.5,1.5,0.8,2.3,0.8c0.8,0,1.6-0.3,2.3-0.8
	c7.2-5.8,16.3-12.6,26.6-20.3c58.6-43.9,156.6-117.5,156.6-195.1C620.6,90.7,575.9,44.5,520.9,44.5z M459.6,336.6
	c-9.3,7-17.6,13.2-24.5,18.7c-6.9-5.4-15.2-11.7-24.5-18.7C353.2,293.5,257,221.4,257,147.4c0-52.7,41.5-95.5,92.4-95.5
	c35,0,66.6,20,82.4,52.2c0.6,1.3,1.9,2.1,3.3,2.1c1.4,0,2.7-0.8,3.3-2.1c15.9-32.2,47.5-52.2,82.5-52.2c51,0,92.4,42.8,92.4,95.5
	C613.3,221.4,517.1,293.5,459.6,336.6z"/>
</svg>
