<?xml version="1.0" encoding="utf-8"?>
<!-- Generator: Adobe Illustrator 18.1.0, SVG Export Plug-In . SVG Version: 6.00 Build 0)  -->
<svg version="1.1" id="Слой_1" xmlns="http://www.w3.org/2000/svg" xmlns:xlink="http://www.w3.org/1999/xlink" x="0px" y="0px"
	 viewBox="251.4 20.4 380.1 380.1" enable-background="new 251.4 20.4 380.1 380.1" xml:space="preserve">
<path d="M631.5,365.1l-93.7-93.7c44.9-61.9,39.5-148.9-16.3-204.7c-30.9-30.9-71.4-46.3-111.9-46.3s-81,15.4-111.9,46.3
	c-61.8,61.8-61.8,162,0,223.7c30.9,30.9,71.4,46.3,111.9,46.3c32.6,0,65.2-10,92.8-30.1l93.7,93.7L631.5,365.1z M322.5,265.8
	c-48-48-48-126.2,0-174.3c23.3-23.3,54.2-36.1,87.1-36.1s63.9,12.8,87.1,36.1c48,48,48,126.2,0,174.3
	c-23.3,23.3-54.2,36.1-87.1,36.1C376.7,301.9,345.8,289,322.5,265.8z"/>
</svg>
