<?xml version="1.0" encoding="utf-8"?>
<!-- Generator: Adobe Illustrator 18.1.0, SVG Export Plug-In . SVG Version: 6.00 Build 0)  -->
<svg version="1.1" id="Capa_1" xmlns="http://www.w3.org/2000/svg" xmlns:xlink="http://www.w3.org/1999/xlink" x="0px" y="0px"
	 viewBox="-382.5 211.2 75 90" enable-background="new -382.5 211.2 75 90" xml:space="preserve">
<g>
	<path id="YouTube" d="M-319.1,277.1h-4.9l0-2.9c0-1.3,1-2.3,2.3-2.3h0.3c1.3,0,2.3,1,2.3,2.3L-319.1,277.1z M-337.6,270.9
		c-1.3,0-2.3,0.8-2.3,1.9v14c0,1,1,1.9,2.3,1.9c1.3,0,2.3-0.8,2.3-1.9v-14C-335.3,271.8-336.3,270.9-337.6,270.9z M-307.5,263.1
		v26.5c0,6.4-5.5,11.6-12.3,11.6h-50.5c-6.8,0-12.3-5.2-12.3-11.6v-26.5c0-6.4,5.5-11.6,12.3-11.6h50.5
		C-313,251.5-307.5,256.8-307.5,263.1z M-366.9,292.5l0-28l6.3,0v-4.1l-16.7,0v4.1l5.2,0v28H-366.9z M-348.1,268.7h-5.2v14.9
		c0,2.2,0.1,3.2,0,3.6c-0.4,1.2-2.3,2.4-3.1,0.1c-0.1-0.4,0-1.6,0-3.6l0-15h-5.2l0,14.8c0,2.3-0.1,4,0,4.7c0.1,1.4,0.1,2.9,1.3,3.8
		c2.3,1.7,6.8-0.3,8-2.7l0,3.1l4.2,0L-348.1,268.7L-348.1,268.7z M-331.4,285.8l0-12.4c0-4.7-3.5-7.6-8.4-3.7l0-9.2l-5.2,0l0,31.9
		l4.3-0.1l0.4-2C-334.9,295.3-331.4,291.9-331.4,285.8z M-315.1,284.2l-3.9,0c0,0.2,0,0.3,0,0.5v2.2c0,1.2-1,2.1-2.1,2.1h-0.8
		c-1.2,0-2.1-1-2.1-2.1v-0.2v-2.4v-3.1h9v-3.4c0-2.5-0.1-4.9-0.3-6.3c-0.6-4.5-6.9-5.2-10.1-2.9c-1,0.7-1.7,1.7-2.2,2.9
		c-0.4,1.3-0.7,3-0.7,5.3v7.4C-328.3,296.5-313.3,294.8-315.1,284.2z M-335.2,244c0.3,0.7,0.7,1.2,1.3,1.6c0.6,0.4,1.3,0.6,2.1,0.6
		c0.8,0,1.4-0.2,2-0.6c0.6-0.4,1.1-1,1.5-1.9l-0.1,2h5.8V221h-4.6v19.2c0,1-0.9,1.9-1.9,1.9c-1,0-1.9-0.9-1.9-1.9V221h-4.8v16.7
		c0,2.1,0,3.5,0.1,4.3C-335.6,242.6-335.4,243.3-335.2,244z M-352.8,230c0-2.4,0.2-4.2,0.6-5.6c0.4-1.3,1.1-2.4,2.1-3.2
		c1-0.8,2.3-1.2,3.9-1.2c1.3,0,2.5,0.3,3.5,0.8c1,0.5,1.7,1.2,2.2,2c0.5,0.8,0.9,1.7,1.1,2.6c0.2,0.9,0.3,2.2,0.3,4v6.3
		c0,2.3-0.1,4-0.3,5.1c-0.2,1.1-0.6,2.1-1.1,3c-0.6,0.9-1.3,1.6-2.2,2.1c-0.9,0.4-2,0.7-3.2,0.7c-1.3,0-2.4-0.2-3.4-0.6
		c-0.9-0.4-1.6-1-2.1-1.7c-0.5-0.8-0.9-1.7-1.1-2.8c-0.2-1.1-0.3-2.7-0.3-4.9L-352.8,230L-352.8,230z M-348.2,239.8
		c0,1.4,1,2.5,2.3,2.5c1.3,0,2.3-1.1,2.3-2.5v-13.2c0-1.4-1-2.5-2.3-2.5c-1.3,0-2.3,1.1-2.3,2.5V239.8z M-364.3,246.5h5.5l0-19
		l6.5-16.2h-6l-3.4,12.1l-3.5-12.1h-5.9l6.9,16.3L-364.3,246.5z"/>
</g>
</svg>
