<?xml version="1.0" encoding="UTF-8"?><!DOCTYPE svg PUBLIC "-//W3C//DTD SVG 1.1//EN" "http://www.w3.org/Graphics/SVG/1.1/DTD/svg11.dtd"><svg xmlns="http://www.w3.org/2000/svg"><symbol id="icon-email" viewBox="0 0 512 512"><path d="M448 64H64C28.656 64 0 92.656 0 128v256c0 35.344 28.656 64 64 64h384c35.344 0 64-28.656 64-64V128c0-35.344-28.656-64-64-64zM342.656 234.781l135.469-116.094c.938 3 1.875 6 1.875 9.313v256c0 2.219-.844 4.188-1.281 6.281l-136.063-155.5zM448 96c2.125 0 4 .813 6 1.219L256 266.938 58 97.219C60 96.813 61.875 96 64 96h384zM33.266 390.25C32.828 388.156 32 386.219 32 384V128c0-3.313.953-6.313 1.891-9.313L169.313 234.75 33.266 390.25zM64 416c-3.234 0-6.172-.938-9.125-1.844l138.75-158.563 51.969 44.531C248.578 302.719 252.297 304 256 304s7.422-1.281 10.406-3.875l51.969-44.531 138.75 158.563c-2.937.905-5.875 1.843-9.125 1.843H64z"/></symbol><symbol id="uEA01-check-symbol-black" viewBox="0 0 448.8 448.8"><path d="M142.8 323.85L35.7 216.75 0 252.45l142.8 142.8 306-306-35.7-35.7z"/></symbol><symbol id="uEA01-close" viewBox="0 0 54.3 54.4"><path fill-rule="evenodd" clip-rule="evenodd" d="M.7 4.8l2.5-2.5L52 51.1l-2.5 2.5L.7 4.8z"/><path fill-rule="evenodd" clip-rule="evenodd" d="M3.2 2.3L5.5 0l48.8 48.8-2.3 2.3L3.2 2.3z"/><path fill-rule="evenodd" clip-rule="evenodd" d="M49.2.4l2.5 2.5L2.5 52.1 0 49.6 49.2.4z"/><path fill-rule="evenodd" clip-rule="evenodd" d="M51.6 2.9L54 5.2 4.8 54.4 2.4 52 51.6 2.9z"/></symbol><symbol id="uEA01-phone" viewBox="308.8 2.3 241.8 400.1"><path d="M548.8 370.5c-2.9 8.4-8.4 14.5-15.9 17.2L506.7 398c-31.7 12.7-70.3-2.7-91.7-36.4-42-66.1-88.7-181.6-104.3-258.3-7.8-38.9 9.4-76.3 41.1-89L378 4.1c6.7-2.7 14.3-2.4 21.2.6.9.4 1.6.7 2.2.9 9.9 5.4 17.2 15.1 20 26.7l11.4 49.3c1.8 7.1-1 13.6-6.5 16.1l-29.9 12c-13.4 5.4-20.8 20-18.5 36.1 6.4 42 31.6 105 56.5 140.1 9.2 13.2 25 18.5 38.3 13.4l29.9-12c5.7-2 12.2.8 15.9 6.8l25.9 43.3c6.4 10.3 7.7 22.7 4.4 33.1z"/></symbol><symbol id="uEA01-pinsvg" viewBox="299.2 30.1 254.5 372.7"><path d="M426.7 40.3c-90.6 0-146.9 98-101.6 176.3L426.7 393l101.6-176.3c45.3-78.4-11-176.4-101.6-176.4zm0 176.4c-37.1 0-67.4-30.2-67.4-67.4S389.5 82 426.7 82s67.4 30.2 67.4 67.4-30.3 67.3-67.4 67.3z"/><path d="M426.7 30.1c-51.8 0-98 31.8-118 79.2-16.7 39.6-10.2 81.6 10.6 118C352 284 385 341.2 417.7 397.9c3.7 6.5 13.9 6.5 17.6 0 32.7-56.3 65.3-112.7 97.6-169.4 21.2-36.7 27.8-76.7 12.7-117.2-18.5-49.3-66.7-79.9-118.9-81.2-13.1-.4-13.1 20 0 20.4 55.1 1.2 100.8 41.6 106.9 96.7 3.7 33.1-11.4 60-27.3 86.9-29.4 51-58.8 102-88.6 153.1h17.6c-29.4-51-58.8-102-88.6-153.1-15.9-27.8-29.8-53.5-27.3-86.9 4.1-54.3 53.9-96.7 107.4-96.7 12.9.1 12.9-20.4-.1-20.4z"/><path d="M426.7 206.5c-73.9-2.9-73.9-111.4 0-114.3 32.2-1.2 55.9 26.9 57.1 57.1 1.2 32.3-26.9 56-57.1 57.2-13.1.4-13.1 20.8 0 20.4 43.3-1.6 75.9-34.3 77.6-77.6s-36.7-75.9-77.6-77.6c-43.3-1.6-75.9 36.7-77.6 77.6-1.6 43.3 36.7 75.9 77.6 77.6 13 .4 13-20 0-20.4z"/></symbol><symbol id="uEA01-refresh" viewBox="254 54.1 362.2 300"><path d="M254 258.1c0-1.1.2-2.2.7-3.3l27.7-62.2c1.1-2.5 3.4-4.3 6.1-4.7 2.7-.5 5.4.5 7.3 2.4l48.2 51c3.1 3.3 3 8.4-.3 11.5-3.3 3.1-8.4 3-11.5-.3l-32-33.9c7.3 66.9 64.1 119.2 132.9 119.2 47 0 91.1-25.1 115.1-65.6 2.3-3.9 7.3-5.2 11.2-2.9 3.9 2.3 5.2 7.3 2.9 11.2-26.9 45.4-76.4 73.6-129.1 73.6-74.8 0-137-55-148.2-126.8l-15.2 34c-1.8 4.1-6.7 6-10.8 4.1-3.2-1.2-5-4.2-5-7.3zm53-135.4c27.8-43 74.9-68.6 126-68.6 76.1 0 139.1 56.9 148.7 130.5l19.1-34.5c2.2-3.9 7.2-5.4 11.1-3.2 3.9 2.2 5.4 7.2 3.2 11.1l-33 59.5c-1.3 2.4-3.7 3.9-6.5 4.2-2.7.2-5.4-.9-7.1-3.1l-43.2-54.3c-2.8-3.5-2.2-8.7 1.3-11.5 3.5-2.8 8.7-2.2 11.5 1.3l27.6 34.7C558.3 122.3 501.6 70.4 433 70.4c-45.5 0-87.5 22.9-112.3 61.2-2.4 3.8-8.1 5.2-11.8 2.6-4.6-3.2-2.8-10.1-1.9-11.5z"/></symbol><symbol id="uEA01-search" viewBox="251.4 20.4 380.1 380.1"><path d="M631.5 365.1l-93.7-93.7c44.9-61.9 39.5-148.9-16.3-204.7-30.9-30.9-71.4-46.3-111.9-46.3s-81 15.4-111.9 46.3c-61.8 61.8-61.8 162 0 223.7 30.9 30.9 71.4 46.3 111.9 46.3 32.6 0 65.2-10 92.8-30.1l93.7 93.7 35.4-35.2zm-309-99.3c-48-48-48-126.2 0-174.3 23.3-23.3 54.2-36.1 87.1-36.1s63.9 12.8 87.1 36.1c48 48 48 126.2 0 174.3-23.3 23.3-54.2 36.1-87.1 36.1-32.9 0-63.8-12.9-87.1-36.1z"/></symbol><symbol id="up-arrow" viewBox="0 0 349.629 349.629"><path d="M174.827 73.433L0 253.42l23.434 22.77 151.393-155.872 151.389 155.878 23.413-22.776z"/></symbol></svg>