<?xml version="1.0" encoding="UTF-8"?><!DOCTYPE svg PUBLIC "-//W3C//DTD SVG 1.1//EN" "http://www.w3.org/Graphics/SVG/1.1/DTD/svg11.dtd"><svg xmlns="http://www.w3.org/2000/svg"><symbol id="uEA01-check-symbol-black" viewBox="0 0 448.8 448.8"><path d="M142.8 323.85L35.7 216.75 0 252.45l142.8 142.8 306-306-35.7-35.7z"/></symbol><symbol id="uEA01-close" viewBox="0 0 54.3 54.4"><path fill-rule="evenodd" clip-rule="evenodd" d="M.7 4.8l2.5-2.5L52 51.1l-2.5 2.5L.7 4.8z"/><path fill-rule="evenodd" clip-rule="evenodd" d="M3.2 2.3L5.5 0l48.8 48.8-2.3 2.3L3.2 2.3z"/><path fill-rule="evenodd" clip-rule="evenodd" d="M49.2.4l2.5 2.5L2.5 52.1 0 49.6 49.2.4z"/><path fill-rule="evenodd" clip-rule="evenodd" d="M51.6 2.9L54 5.2 4.8 54.4 2.4 52 51.6 2.9z"/></symbol><symbol id="uEA01-refresh" viewBox="254 54.1 362.2 300"><path d="M254 258.1c0-1.1.2-2.2.7-3.3l27.7-62.2c1.1-2.5 3.4-4.3 6.1-4.7 2.7-.5 5.4.5 7.3 2.4l48.2 51c3.1 3.3 3 8.4-.3 11.5-3.3 3.1-8.4 3-11.5-.3l-32-33.9c7.3 66.9 64.1 119.2 132.9 119.2 47 0 91.1-25.1 115.1-65.6 2.3-3.9 7.3-5.2 11.2-2.9 3.9 2.3 5.2 7.3 2.9 11.2-26.9 45.4-76.4 73.6-129.1 73.6-74.8 0-137-55-148.2-126.8l-15.2 34c-1.8 4.1-6.7 6-10.8 4.1-3.2-1.2-5-4.2-5-7.3zm53-135.4c27.8-43 74.9-68.6 126-68.6 76.1 0 139.1 56.9 148.7 130.5l19.1-34.5c2.2-3.9 7.2-5.4 11.1-3.2 3.9 2.2 5.4 7.2 3.2 11.1l-33 59.5c-1.3 2.4-3.7 3.9-6.5 4.2-2.7.2-5.4-.9-7.1-3.1l-43.2-54.3c-2.8-3.5-2.2-8.7 1.3-11.5 3.5-2.8 8.7-2.2 11.5 1.3l27.6 34.7C558.3 122.3 501.6 70.4 433 70.4c-45.5 0-87.5 22.9-112.3 61.2-2.4 3.8-8.1 5.2-11.8 2.6-4.6-3.2-2.8-10.1-1.9-11.5z"/></symbol><symbol id="uEA01-search" viewBox="251.4 20.4 380.1 380.1"><path d="M631.5 365.1l-93.7-93.7c44.9-61.9 39.5-148.9-16.3-204.7-30.9-30.9-71.4-46.3-111.9-46.3s-81 15.4-111.9 46.3c-61.8 61.8-61.8 162 0 223.7 30.9 30.9 71.4 46.3 111.9 46.3 32.6 0 65.2-10 92.8-30.1l93.7 93.7 35.4-35.2zm-309-99.3c-48-48-48-126.2 0-174.3 23.3-23.3 54.2-36.1 87.1-36.1s63.9 12.8 87.1 36.1c48 48 48 126.2 0 174.3-23.3 23.3-54.2 36.1-87.1 36.1-32.9 0-63.8-12.9-87.1-36.1z"/></symbol><symbol id="up-arrow" viewBox="0 0 349.629 349.629"><path d="M174.827 73.433L0 253.42l23.434 22.77 151.393-155.872 151.389 155.878 23.413-22.776z"/></symbol></svg>